<svg width="80" height="80" viewBox="0 0 80 80" fill="none" xmlns="http://www.w3.org/2000/svg">
<path d="M1.0433 6.28089C0.735662 6.4414 0.428021 6.74904 0.267513 7.07005C0 7.5917 0 7.81909 0 28.2036C0 48.5881 0 48.8155 0.267513 49.3372C0.441397 49.6849 0.722286 49.9658 1.07005 50.1397C1.57833 50.4072 1.83247 50.4072 12.1852 50.4072H22.7654L23.4208 50.8887L24.0762 51.3703V52.8951V54.4199H22.5915C21.789 54.4199 20.6788 54.4868 20.1571 54.567C13.9107 55.5033 9.10883 60.3052 8.17253 66.5516C8.09228 67.0733 8.0254 68.7185 8.0254 70.2032C8.0254 73.3197 8.1324 73.721 9.09545 74.2159C9.6171 74.4834 9.83111 74.4834 34.1079 74.4834C58.3848 74.4834 58.5988 74.4834 59.1204 74.2159C60.0835 73.721 60.1905 73.3197 60.1905 70.2032C60.1905 68.7185 60.1236 67.0733 60.0434 66.5516C59.1071 60.3052 54.3052 55.5033 48.0588 54.567C47.5371 54.4868 46.4269 54.4199 45.6244 54.4199H44.1397V52.8951V51.3703L44.7951 50.8887L45.4505 50.4072H56.0975C66.5172 50.4072 66.7713 50.4072 67.2796 50.1397C67.6274 49.9658 67.9082 49.6849 68.0821 49.3372C68.3496 48.8155 68.3496 48.5881 68.3496 28.2036C68.3496 7.81909 68.3496 7.5917 68.0821 7.07005C67.9082 6.72229 67.6274 6.4414 67.2796 6.26752C66.7579 6 66.5707 6 34.1481 6C1.93947 6.01338 1.5382 6.01338 1.0433 6.28089ZM27.0857 12.7547C23.7017 14.2528 20.5183 15.7107 19.9966 15.9782C16.5056 17.8375 14.0043 21.0209 13.0279 24.8597C12.64 26.3711 12.6668 30.1163 13.0814 31.6144C13.4559 32.9921 14.5393 35.1723 15.382 36.2825C16.024 37.1118 16.0508 37.2054 16.1846 38.3557C16.4788 40.9774 17.2814 43.385 18.5654 45.4983L19.1138 46.3945H11.5566H4.0127V28.2036V10.0127H18.6323H33.2385L27.0857 12.7547ZM64.3369 28.2036V46.3945H56.7797C52.6199 46.3945 49.2224 46.3678 49.2224 46.3276C49.2224 46.2875 49.49 45.7792 49.811 45.2174C50.881 43.3716 51.8039 40.643 51.9778 38.7704C52.0715 37.8073 52.2587 37.3659 52.7135 36.9647C53.1148 36.6035 54.2249 34.8914 54.7065 33.9016C55.6561 31.9087 56.1377 29.0061 55.8969 26.7457C55.6561 24.4183 54.7466 21.9572 53.4625 20.1515C52.7937 19.2285 51.3358 17.7438 50.4798 17.1018C49.9715 16.7407 49.918 16.6337 49.8243 15.9247C49.7173 14.9751 49.1823 13.3566 48.7275 12.5541C48.5403 12.2197 48.032 11.5108 47.604 10.9757L46.8148 10.0127H55.5759H64.3369V28.2036ZM42.1601 12.0057C44.8887 12.942 46.4136 15.6974 45.6913 18.3859C45.4238 19.4024 44.8352 20.4056 44.1397 21.0075C43.7117 21.3954 40.0735 23.2546 31.1118 27.682C24.2768 31.0526 18.6323 33.8214 18.5788 33.8214C18.5119 33.8214 18.2578 33.4602 18.0036 33.0322C15.168 28.1902 16.9871 21.9572 21.9628 19.4827C23.4342 18.747 38.5487 12.0592 39.0703 11.912C39.8595 11.6847 41.3576 11.7248 42.1601 12.0057ZM49.9849 22.2381C50.7205 23.2145 51.4294 24.7126 51.7237 25.9164C52.018 27.1202 52.0046 29.2202 51.6969 30.4106C51.4562 31.387 50.7473 32.9787 50.2925 33.5539L50.0384 33.8883L44.4473 31.0927L38.8563 28.2972L42.3875 26.5584C45.7314 24.9266 45.9722 24.7794 46.9352 23.8565C47.5237 23.2947 48.1791 22.4922 48.4734 21.9973C49.0619 20.9807 49.0218 20.9807 49.9849 22.2381ZM41.2907 34.0086L48.1123 37.4061L48.0053 38.2487C47.3498 43.5054 43.5645 48.013 38.3882 49.7117C30.3628 52.3601 21.7355 47.1168 20.2909 38.7035L20.1036 37.6334L27.1392 34.129C31.0048 32.1895 34.2417 30.6112 34.322 30.6112C34.4022 30.6112 37.5455 32.136 41.2907 34.0086ZM31.1787 54.139C32.0748 54.2995 33.3857 54.4199 34.1079 54.4199C35.5525 54.4199 38.2544 54.0053 39.3913 53.6174L40.127 53.3632V55.1021C40.127 56.5734 40.1671 56.9212 40.3945 57.3625C40.876 58.3122 41.2104 58.3925 44.8085 58.4727C47.0155 58.5129 48.1524 58.5931 48.6205 58.7269C52.232 59.7969 54.867 62.4319 55.8701 65.9899C55.9772 66.351 56.0975 67.5147 56.1377 68.558L56.2179 70.4707H52.1785H48.1524V69.2803C48.1524 68.6382 48.0855 67.7822 48.0186 67.3809C47.5639 64.9733 45.6244 63.0338 43.2168 62.5791C42.2537 62.3918 25.9622 62.3918 24.9991 62.5791C22.5915 63.0338 20.652 64.9733 20.1973 67.3809C20.1304 67.7822 20.0635 68.6382 20.0635 69.2803V70.4707H16.0374H11.998L12.0782 68.558C12.1184 67.5147 12.2387 66.351 12.3457 65.9899C13.2018 62.9536 15.3954 60.4256 18.1909 59.2351C19.7024 58.6065 20.1304 58.5396 23.4074 58.4727C27.0055 58.3925 27.3399 58.3122 27.8214 57.3625C28.0488 56.9212 28.0889 56.5734 28.0889 55.1021V53.3632L28.8246 53.6174C29.2258 53.7511 30.2825 53.9919 31.1787 54.139ZM43.0696 66.7255C43.8722 67.1402 44.1397 67.7688 44.1397 69.2669V70.4707H34.1079H24.0762V69.2669C24.0762 67.7956 24.3437 67.1402 25.1195 66.7389C25.601 66.4848 25.922 66.4714 34.0812 66.458C42.3072 66.458 42.5614 66.4714 43.0696 66.7255Z" fill="black"/>
<path d="M29.1456 42.676C28.557 43.0104 28.0889 43.7862 28.0889 44.3881C28.0889 45.6454 30.0016 47.2237 32.1952 47.7989C33.1717 48.053 35.0442 48.053 36.0207 47.7989C38.2143 47.2237 40.127 45.6454 40.127 44.3881C40.127 43.3983 39.0971 42.3818 38.0805 42.3818C37.7595 42.3818 37.4117 42.5289 36.9703 42.8499C35.7665 43.7059 35.0576 43.9868 34.1079 43.9868C33.1583 43.9868 32.4494 43.7059 31.2456 42.8499C30.4831 42.3015 29.8679 42.248 29.1456 42.676Z" fill="black"/>
</svg>
